<svg width="262" height="40" viewBox="0 0 262 40" fill="none" xmlns="http://www.w3.org/2000/svg">
<mask id="path-1-outside-1_25_4" maskUnits="userSpaceOnUse" x="0.112" y="0.880005" width="262" height="39" fill="black">
<rect fill="white" x="0.112" y="0.880005" width="262" height="39"/>
<path d="M13.248 31.552C10.944 31.552 8.96 31.1787 7.296 30.432C5.632 29.7067 4.352 28.64 3.456 27.232C2.56 25.8453 2.112 24.1493 2.112 22.144C2.112 21.4187 2.176 20.6827 2.304 19.936C2.432 19.1893 2.624 18.5067 2.88 17.888C3.15733 17.248 3.49867 16.736 3.904 16.352C4.33067 15.968 4.84267 15.776 5.44 15.776C5.696 15.776 5.92 15.808 6.112 15.872C6.32533 15.936 6.50667 16.0213 6.656 16.128C6.80533 16.2133 6.912 16.3093 6.976 16.416C6.54933 16.864 6.112 17.6 5.664 18.624C5.216 19.648 4.992 20.8747 4.992 22.304C4.992 23.2427 5.13067 24.128 5.408 24.96C5.68533 25.8133 6.144 26.56 6.784 27.2C7.424 27.8613 8.27733 28.3733 9.344 28.736C10.432 29.12 11.7867 29.312 13.408 29.312C15.328 29.312 16.896 29.0667 18.112 28.576C19.3493 28.0853 20.3093 27.4667 20.992 26.72C21.6747 25.9947 22.144 25.2587 22.4 24.512C22.656 23.7653 22.784 23.136 22.784 22.624L25.664 22.56C25.664 24.3093 25.1307 25.856 24.064 27.2C23.0187 28.5653 21.5573 29.632 19.68 30.4C17.824 31.168 15.68 31.552 13.248 31.552ZM20.8 24C20.096 24 19.5307 23.904 19.104 23.712C18.6987 23.4987 18.3893 23.2427 18.176 22.944C17.984 22.624 17.8773 22.2933 17.856 21.952C17.8347 21.5893 17.8773 21.2693 17.984 20.992C18.2187 21.1413 18.5813 21.312 19.072 21.504C19.5627 21.6747 20.128 21.76 20.768 21.76H28.544V24H20.8ZM28.544 24V21.76C28.8 21.76 28.9707 21.856 29.056 22.048C29.1413 22.24 29.184 22.5173 29.184 22.88C29.184 23.2213 29.1413 23.4987 29.056 23.712C28.9707 23.904 28.8 24 28.544 24ZM15.808 37.152C15.3173 37.152 14.8907 36.9707 14.528 36.608C14.1653 36.2453 13.984 35.8187 13.984 35.328C13.984 34.816 14.1653 34.3787 14.528 34.016C14.8907 33.6533 15.3173 33.472 15.808 33.472C16.32 33.472 16.7467 33.6533 17.088 34.016C17.4507 34.3787 17.632 34.816 17.632 35.328C17.632 35.8187 17.4507 36.2453 17.088 36.608C16.7467 36.9707 16.32 37.152 15.808 37.152ZM11.136 37.152C10.6453 37.152 10.2187 36.9707 9.856 36.608C9.49333 36.2453 9.312 35.8187 9.312 35.328C9.312 34.816 9.49333 34.3787 9.856 34.016C10.2187 33.6533 10.6453 33.472 11.136 33.472C11.648 33.472 12.0747 33.6533 12.416 34.016C12.7787 34.3787 12.96 34.816 12.96 35.328C12.96 35.8187 12.7787 36.2453 12.416 36.608C12.0747 36.9707 11.648 37.152 11.136 37.152Z"/>
<path d="M28.5312 24V21.76H30.6753C31.3579 21.76 31.9233 21.6 32.3713 21.28C32.8193 20.96 33.1606 20.5547 33.3952 20.064C33.6512 19.5733 33.8326 19.0613 33.9393 18.528C34.0673 17.9947 34.1419 17.5147 34.1632 17.088C34.1846 16.64 34.1953 16.32 34.1953 16.128C34.1953 15.552 34.1419 14.8693 34.0353 14.08C33.9286 13.2907 33.6833 12.4693 33.2993 11.616C32.9366 10.7627 32.3286 9.984 31.4753 9.28C31.5819 9.17334 31.7099 9.07734 31.8592 8.99201C32.0299 8.88534 32.2219 8.80001 32.4352 8.73601C32.6486 8.67201 32.8939 8.64001 33.1712 8.64001C33.9179 8.64001 34.5366 8.88534 35.0273 9.37601C35.5393 9.86667 35.9446 10.5067 36.2433 11.296C36.5419 12.064 36.7553 12.8853 36.8833 13.76C37.0113 14.6347 37.0752 15.4453 37.0752 16.192C37.0752 18.6453 36.5099 20.5653 35.3792 21.952C34.2486 23.3173 32.6806 24 30.6753 24H28.5312ZM28.5312 24C28.2752 24 28.1046 23.904 28.0193 23.712C27.9339 23.4987 27.8913 23.2213 27.8913 22.88C27.8913 22.5173 27.9339 22.24 28.0193 22.048C28.1046 21.856 28.2752 21.76 28.5312 21.76V24ZM33.2673 30.24C32.7339 30.24 32.2859 30.0587 31.9233 29.696C31.5606 29.3333 31.3792 28.9067 31.3792 28.416C31.3792 27.904 31.5606 27.4667 31.9233 27.104C32.2859 26.7413 32.7339 26.56 33.2673 26.56C33.7579 26.56 34.1846 26.7413 34.5472 27.104C34.9099 27.4667 35.0913 27.904 35.0913 28.416C35.0913 28.9067 34.9099 29.3333 34.5472 29.696C34.1846 30.0587 33.7579 30.24 33.2673 30.24Z"/>
<path d="M45.3963 24V21.76H49.3643V24H45.3963ZM41.4922 31.328C41.2149 31.328 40.9696 31.296 40.7562 31.232C40.5429 31.168 40.3509 31.0827 40.1802 30.976C40.0309 30.8693 39.9029 30.7733 39.7962 30.688C40.6496 29.9627 41.2576 29.1947 41.6203 28.384C42.0043 27.5733 42.2496 26.7733 42.3563 25.984C42.4629 25.216 42.5163 24.5547 42.5163 24V10.048C42.5163 9.51467 42.6549 9.152 42.9323 8.96C43.2096 8.74667 43.5509 8.64001 43.9562 8.64001C44.3616 8.64001 44.7029 8.74667 44.9803 8.96C45.2576 9.152 45.3963 9.51467 45.3963 10.048V24C45.3963 24.7467 45.3323 25.5467 45.2043 26.4C45.0763 27.2533 44.8629 28.0533 44.5643 28.8C44.2656 29.5467 43.8603 30.1547 43.3483 30.624C42.8576 31.0933 42.2389 31.328 41.4922 31.328ZM49.3643 24V21.76C49.6203 21.76 49.7909 21.856 49.8763 22.048C49.9616 22.24 50.0042 22.5173 50.0042 22.88C50.0042 23.2213 49.9616 23.4987 49.8763 23.712C49.7909 23.904 49.6203 24 49.3643 24Z"/>
<path d="M49.375 24V21.76H54.879C56.1803 21.76 57.4177 21.568 58.591 21.184C59.7857 20.7787 60.8523 20.2453 61.791 19.584C62.7297 18.9013 63.4657 18.1333 63.999 17.28C64.5537 16.4267 64.831 15.5413 64.831 14.624C64.831 13.4293 64.3617 12.512 63.423 11.872C62.4843 11.2107 61.151 10.88 59.423 10.88C57.695 10.88 56.3617 11.2107 55.423 11.872C54.4843 12.512 54.015 13.4293 54.015 14.624C54.015 15.5413 54.2817 16.4267 54.815 17.28C55.3697 18.1333 56.1163 18.9013 57.055 19.584C57.9937 20.2453 59.0603 20.7787 60.255 21.184C61.4497 21.568 62.687 21.76 63.967 21.76H69.471V24H63.967C62.495 24 61.0017 23.7653 59.487 23.296C57.9723 22.8267 56.5857 22.176 55.327 21.344C54.0683 20.4907 53.055 19.4987 52.287 18.368C51.519 17.216 51.135 15.968 51.135 14.624C51.135 13.5573 51.3803 12.6507 51.871 11.904C52.3617 11.136 53.0123 10.5173 53.823 10.048C54.655 9.55734 55.551 9.20534 56.511 8.99201C57.4923 8.75734 58.463 8.64001 59.423 8.64001C60.383 8.64001 61.343 8.75734 62.303 8.99201C63.2843 9.20534 64.1803 9.54667 64.991 10.016C65.8017 10.4853 66.4523 11.104 66.943 11.872C67.455 12.6187 67.711 13.536 67.711 14.624C67.711 15.968 67.327 17.216 66.559 18.368C65.8123 19.4987 64.8097 20.4907 63.551 21.344C62.2923 22.176 60.9057 22.8267 59.391 23.296C57.8763 23.7653 56.3723 24 54.879 24H49.375ZM49.375 24C49.119 24 48.9483 23.904 48.863 23.712C48.7777 23.4987 48.735 23.2213 48.735 22.88C48.735 22.5173 48.7777 22.24 48.863 22.048C48.9483 21.856 49.119 21.76 49.375 21.76V24ZM69.471 24V21.76C69.727 21.76 69.8977 21.856 69.983 22.048C70.0683 22.24 70.111 22.5173 70.111 22.88C70.111 23.2213 70.0683 23.4987 69.983 23.712C69.8977 23.904 69.727 24 69.471 24Z"/>
<path d="M69.4688 24V21.76H70.2688C70.9301 21.76 71.4634 21.568 71.8688 21.184C72.2954 20.8 72.6048 20.32 72.7968 19.744C73.0101 19.168 73.1168 18.5813 73.1168 17.984V7.616C73.1168 6.95467 73.0208 6.35734 72.8288 5.82401C72.6581 5.29067 72.4341 4.84267 72.1568 4.48001C71.8794 4.11734 71.6128 3.85067 71.3568 3.68C71.4421 3.57334 71.5808 3.456 71.7728 3.328C71.9861 3.20001 72.2314 3.09334 72.5088 3.00801C72.8074 2.92267 73.1168 2.88 73.4368 2.88C73.8421 2.88 74.2368 2.98667 74.6208 3.2C75.0261 3.392 75.3567 3.744 75.6127 4.256C75.8687 4.768 75.9967 5.49334 75.9967 6.432V17.984C75.9967 19.136 75.7514 20.1707 75.2607 21.088C74.7701 21.984 74.0981 22.6987 73.2448 23.232C72.3914 23.744 71.3994 24 70.2688 24H69.4688ZM69.4688 24C69.2127 24 69.0421 23.904 68.9567 23.712C68.8714 23.4987 68.8288 23.2213 68.8288 22.88C68.8288 22.5173 68.8714 22.24 68.9567 22.048C69.0421 21.856 69.2127 21.76 69.4688 21.76V24Z"/>
<path d="M82.8305 24C82.1478 24 81.7425 23.7973 81.6145 23.392C81.4865 22.9867 81.4225 22.5067 81.4225 21.952V7.616C81.4225 6.95467 81.3265 6.35734 81.1345 5.82401C80.9638 5.29067 80.7398 4.84267 80.4625 4.48001C80.1852 4.11734 79.9185 3.85067 79.6625 3.68C79.7478 3.57334 79.8865 3.456 80.0785 3.328C80.2918 3.20001 80.5478 3.09334 80.8465 3.00801C81.1452 2.92267 81.4545 2.88 81.7745 2.88C82.1798 2.88 82.5745 2.98667 82.9585 3.2C83.3425 3.392 83.6625 3.744 83.9185 4.256C84.1745 4.768 84.3025 5.49334 84.3025 6.432V21.952C84.3025 22.5067 84.2278 22.9867 84.0785 23.392C83.9292 23.7973 83.5132 24 82.8305 24Z"/>
<path d="M100.146 24C99.1222 24 98.3009 23.7973 97.6823 23.392C97.0849 22.9653 96.6476 22.4107 96.3702 21.728C96.1142 21.0453 95.9863 20.2987 95.9863 19.488V15.36C95.9863 14.848 96.1249 14.496 96.4023 14.304C96.6796 14.0907 97.0209 13.984 97.4262 13.984C97.8316 13.984 98.1729 14.0907 98.4502 14.304C98.7276 14.496 98.8662 14.848 98.8662 15.36V18.56C98.8662 19.7333 99.0476 20.5653 99.4102 21.056C99.7729 21.5253 100.477 21.76 101.522 21.76H112.658C113.32 21.76 113.853 21.568 114.258 21.184C114.685 20.8 114.994 20.32 115.186 19.744C115.4 19.168 115.506 18.5813 115.506 17.984V7.616C115.506 6.95467 115.41 6.35734 115.218 5.82401C115.026 5.29067 114.792 4.84267 114.514 4.48001C114.258 4.11734 114.002 3.85067 113.746 3.68C113.832 3.57334 113.97 3.456 114.162 3.328C114.376 3.20001 114.632 3.09334 114.93 3.00801C115.229 2.92267 115.538 2.88 115.858 2.88C116.264 2.88 116.658 2.98667 117.042 3.2C117.426 3.392 117.746 3.744 118.002 4.256C118.258 4.768 118.386 5.49334 118.386 6.432V17.984C118.386 19.136 118.141 20.1707 117.65 21.088C117.16 21.984 116.488 22.6987 115.634 23.232C114.781 23.744 113.789 24 112.658 24H100.146ZM104.146 13.76C103.954 13.504 103.869 13.2693 103.89 13.056C103.912 12.8213 103.986 12.64 104.114 12.512C104.264 12.3627 104.445 12.2773 104.658 12.256C104.872 12.2133 105.085 12.2347 105.298 12.32C105.085 12.0853 104.85 11.7227 104.594 11.232C104.36 10.72 104.242 10.176 104.242 9.6C104.242 9.024 104.37 8.512 104.626 8.064C104.904 7.59467 105.298 7.232 105.81 6.97601C106.344 6.72001 106.973 6.592 107.698 6.592C108.317 6.592 108.765 6.67734 109.042 6.84801C109.32 6.99734 109.49 7.168 109.554 7.36C109.64 7.552 109.682 7.72267 109.682 7.87201C109.682 8.21334 109.586 8.46934 109.394 8.64001C109.224 8.78934 109.032 8.87467 108.818 8.89601C108.605 8.89601 108.445 8.85334 108.338 8.76801C108.36 8.34134 108.221 8.02134 107.922 7.808C107.645 7.57334 107.357 7.43467 107.058 7.392C106.845 7.43467 106.621 7.616 106.386 7.936C106.173 8.256 106.066 8.72534 106.066 9.344C106.066 10.0693 106.216 10.6133 106.514 10.976C106.813 11.3173 107.165 11.5413 107.57 11.648C107.997 11.7547 108.37 11.808 108.69 11.808C108.946 11.808 109.17 11.7973 109.362 11.776C109.554 11.7333 109.693 11.7013 109.778 11.68C110.12 11.68 110.322 11.776 110.386 11.968C110.472 12.16 110.482 12.352 110.418 12.544C110.354 12.736 110.258 12.832 110.13 12.832C109.64 12.8747 109.128 12.928 108.594 12.992C108.061 13.056 107.538 13.12 107.026 13.184C106.536 13.248 106.077 13.312 105.65 13.376C105.245 13.44 104.904 13.504 104.626 13.568C104.349 13.632 104.189 13.696 104.146 13.76Z"/>
<path d="M125.237 24C124.554 24 124.149 23.7973 124.021 23.392C123.893 22.9867 123.829 22.5067 123.829 21.952V7.616C123.829 6.95467 123.733 6.35734 123.541 5.82401C123.37 5.29067 123.146 4.84267 122.869 4.48001C122.591 4.11734 122.325 3.85067 122.069 3.68C122.154 3.57334 122.293 3.456 122.485 3.328C122.698 3.20001 122.954 3.09334 123.253 3.00801C123.551 2.92267 123.861 2.88 124.181 2.88C124.586 2.88 124.981 2.98667 125.365 3.2C125.749 3.392 126.069 3.744 126.325 4.256C126.581 4.768 126.709 5.49334 126.709 6.432V21.952C126.709 22.5067 126.634 22.9867 126.485 23.392C126.335 23.7973 125.919 24 125.237 24Z"/>
<path d="M143.128 24V21.76H145.208V24H143.128ZM136.889 24C135.63 24 134.51 23.7013 133.529 23.104C132.547 22.4853 131.779 21.6 131.225 20.448C130.67 19.296 130.393 17.9093 130.393 16.288C130.393 13.8773 131.043 12 132.344 10.656C133.667 9.312 135.427 8.64001 137.624 8.64001C139.246 8.64001 140.568 8.97067 141.592 9.63201C142.616 10.2933 143.128 11.1467 143.128 12.192V24H140.249V12.192C140.249 11.7867 140.035 11.4667 139.609 11.232C139.203 10.9973 138.542 10.88 137.624 10.88C136.216 10.88 135.139 11.3387 134.393 12.256C133.646 13.152 133.273 14.496 133.273 16.288C133.273 18.0587 133.667 19.4133 134.456 20.352C135.246 21.2907 136.376 21.76 137.848 21.76H143.128V24H136.889ZM139.225 31.328C138.947 31.328 138.702 31.296 138.488 31.232C138.275 31.168 138.083 31.0827 137.913 30.976C137.763 30.8693 137.635 30.7733 137.529 30.688C138.382 29.9627 138.99 29.1947 139.353 28.384C139.737 27.5733 139.982 26.7733 140.089 25.984C140.195 25.216 140.249 24.5547 140.249 24V21.76H143.128V24C143.128 24.7467 143.064 25.5467 142.936 26.4C142.808 27.2533 142.595 28.0533 142.296 28.8C141.998 29.5467 141.593 30.1547 141.081 30.624C140.59 31.0933 139.971 31.328 139.225 31.328ZM145.208 24V21.76C145.464 21.76 145.635 21.856 145.721 22.048C145.806 22.24 145.848 22.5173 145.848 22.88C145.848 23.2213 145.806 23.4987 145.721 23.712C145.635 23.904 145.464 24 145.208 24Z"/>
<path d="M145.219 24V21.76H146.019C146.68 21.76 147.213 21.568 147.619 21.184C148.045 20.8 148.355 20.32 148.547 19.744C148.76 19.168 148.867 18.5813 148.867 17.984V10.048C148.867 9.51467 149.005 9.152 149.283 8.96C149.56 8.74667 149.901 8.64001 150.307 8.64001C150.712 8.64001 151.053 8.74667 151.331 8.96C151.608 9.152 151.747 9.51467 151.747 10.048V17.984C151.747 19.136 151.501 20.1707 151.011 21.088C150.52 21.984 149.848 22.6987 148.995 23.232C148.141 23.744 147.149 24 146.019 24H145.219ZM154.595 24C153.485 24 152.493 23.744 151.619 23.232C150.765 22.6987 150.093 21.984 149.603 21.088C149.112 20.1707 148.867 19.136 148.867 17.984H151.747C151.747 18.5813 151.843 19.168 152.035 19.744C152.248 20.32 152.568 20.8 152.995 21.184C153.421 21.568 153.955 21.76 154.595 21.76H155.747V24H154.595ZM155.747 24V21.76C156.003 21.76 156.173 21.856 156.259 22.048C156.344 22.24 156.387 22.5173 156.387 22.88C156.387 23.2213 156.344 23.4987 156.259 23.712C156.173 23.904 156.003 24 155.747 24ZM145.219 24C144.963 24 144.792 23.904 144.707 23.712C144.621 23.4987 144.579 23.2213 144.579 22.88C144.579 22.5173 144.621 22.24 144.707 22.048C144.792 21.856 144.963 21.76 145.219 21.76V24ZM152.675 6.56001C152.184 6.56001 151.757 6.37867 151.395 6.016C151.032 5.65334 150.851 5.22667 150.851 4.736C150.851 4.224 151.032 3.78667 151.395 3.42401C151.757 3.06134 152.184 2.88 152.675 2.88C153.187 2.88 153.613 3.06134 153.955 3.42401C154.317 3.78667 154.499 4.224 154.499 4.736C154.499 5.22667 154.317 5.65334 153.955 6.016C153.613 6.37867 153.187 6.56001 152.675 6.56001ZM148.003 6.56001C147.512 6.56001 147.085 6.37867 146.723 6.016C146.36 5.65334 146.179 5.22667 146.179 4.736C146.179 4.224 146.36 3.78667 146.723 3.42401C147.085 3.06134 147.512 2.88 148.003 2.88C148.515 2.88 148.941 3.06134 149.283 3.42401C149.645 3.78667 149.827 4.224 149.827 4.736C149.827 5.22667 149.645 5.65334 149.283 6.016C148.941 6.37867 148.515 6.56001 148.003 6.56001Z"/>
<path d="M174.086 24C172.977 24 171.985 23.744 171.11 23.232C170.257 22.6987 169.585 21.984 169.094 21.088C168.603 20.1707 168.358 19.136 168.358 17.984V17.088H171.238V17.984C171.238 18.5813 171.334 19.168 171.526 19.744C171.739 20.32 172.059 20.8 172.486 21.184C172.913 21.568 173.446 21.76 174.086 21.76H175.238V24H174.086ZM155.75 24V21.76H165.51C166.385 21.76 167.078 21.4187 167.59 20.736C168.102 20.032 168.358 18.8373 168.358 17.152C168.358 14.8053 167.814 13.1733 166.726 12.256C165.659 11.3387 164.113 10.88 162.086 10.88C161.659 10.88 161.275 10.8907 160.934 10.912C160.593 10.9333 160.283 10.9653 160.006 11.008C159.729 11.0293 159.462 11.04 159.206 11.04C158.694 11.04 158.278 10.9653 157.958 10.816C157.638 10.6667 157.393 10.4533 157.222 10.176C157.073 9.87734 156.955 9.54667 156.87 9.184C156.827 8.94934 156.785 8.71467 156.742 8.48001C156.721 8.22401 156.721 8.05334 156.742 7.968C156.955 8.11734 157.243 8.28801 157.606 8.48001C157.969 8.67201 158.459 8.76801 159.078 8.76801C159.291 8.76801 159.537 8.75734 159.814 8.73601C160.113 8.71467 160.443 8.69334 160.806 8.672C161.169 8.65067 161.563 8.64001 161.99 8.64001C163.633 8.64001 165.041 8.84267 166.214 9.248C167.387 9.63201 168.337 10.1973 169.062 10.944C169.809 11.6907 170.353 12.5867 170.694 13.632C171.057 14.6773 171.238 15.84 171.238 17.12C171.238 18.8267 170.971 20.192 170.438 21.216C169.905 22.2187 169.201 22.9333 168.326 23.36C167.473 23.7867 166.534 24 165.51 24H155.75ZM155.75 24C155.494 24 155.323 23.904 155.238 23.712C155.153 23.4987 155.11 23.2213 155.11 22.88C155.11 22.5173 155.153 22.24 155.238 22.048C155.323 21.856 155.494 21.76 155.75 21.76V24ZM175.238 24V21.76C175.494 21.76 175.665 21.856 175.75 22.048C175.835 22.24 175.878 22.5173 175.878 22.88C175.878 23.2213 175.835 23.4987 175.75 23.712C175.665 23.904 175.494 24 175.238 24Z"/>
<path d="M175.25 24V21.76H182.066C183.538 21.76 184.669 21.2907 185.458 20.352C186.247 19.4133 186.642 18.0587 186.642 16.288C186.642 14.496 186.269 13.152 185.522 12.256C184.775 11.3387 183.698 10.88 182.29 10.88C181.373 10.88 180.701 10.9973 180.274 11.232C179.869 11.4667 179.666 11.7867 179.666 12.192V24H176.786V12.192C176.786 11.1467 177.298 10.2933 178.322 9.63201C179.346 8.97067 180.669 8.64001 182.29 8.64001C184.509 8.64001 186.269 9.312 187.57 10.656C188.871 12 189.522 13.8773 189.522 16.288C189.522 17.9093 189.245 19.296 188.69 20.448C188.135 21.6 187.367 22.4853 186.386 23.104C185.405 23.7013 184.285 24 183.026 24H175.25ZM175.25 24C174.994 24 174.823 23.904 174.738 23.712C174.653 23.4987 174.61 23.2213 174.61 22.88C174.61 22.5173 174.653 22.24 174.738 22.048C174.823 21.856 174.994 21.76 175.25 21.76V24Z"/>
<path d="M220.522 24C219.412 24 218.42 23.744 217.546 23.232C216.692 22.6987 216.02 21.984 215.53 21.088C215.039 20.1707 214.794 19.136 214.794 17.984V16.352H217.674V17.984C217.674 18.5813 217.77 19.168 217.962 19.744C218.175 20.32 218.495 20.8 218.922 21.184C219.348 21.568 219.882 21.76 220.522 21.76H221.674V24H220.522ZM202.474 32.896C202.282 32.896 202.09 32.8747 201.898 32.832C201.706 32.7893 201.524 32.736 201.354 32.672C201.183 32.608 201.023 32.544 200.874 32.48C201.087 32.288 201.279 32.0427 201.45 31.744C201.642 31.4667 201.802 31.1253 201.93 30.72C202.058 30.3147 202.122 29.856 202.122 29.344V27.296C202.122 26.1867 202.399 25.216 202.954 24.384C203.508 23.552 204.276 22.912 205.258 22.464C206.26 21.9947 207.412 21.76 208.714 21.76H210.218C211.69 21.76 212.82 21.2907 213.61 20.352C214.399 19.4133 214.794 18.0587 214.794 16.288C214.794 14.496 214.42 13.152 213.674 12.256C212.927 11.3387 211.85 10.88 210.442 10.88C209.524 10.88 208.852 10.9973 208.426 11.232C208.02 11.4667 207.818 11.7867 207.818 12.192V22.944H204.938V12.192C204.938 11.168 205.45 10.3253 206.474 9.66401C207.498 8.98134 208.82 8.64001 210.442 8.64001C212.66 8.64001 214.42 9.312 215.722 10.656C217.023 12 217.674 13.8773 217.674 16.288C217.674 17.9093 217.396 19.296 216.842 20.448C216.287 21.6 215.519 22.4853 214.538 23.104C213.556 23.7013 212.436 24 211.178 24H208.714C207.754 24 207.007 24.16 206.474 24.48C205.94 24.8213 205.556 25.2373 205.322 25.728C205.108 26.24 205.002 26.7627 205.002 27.296V29.344C205.002 30.2613 204.874 30.976 204.618 31.488C204.362 32.0213 204.042 32.384 203.658 32.576C203.274 32.7893 202.879 32.896 202.474 32.896ZM221.674 24V21.76C221.93 21.76 222.1 21.856 222.186 22.048C222.271 22.24 222.314 22.5173 222.314 22.88C222.314 23.2213 222.271 23.4987 222.186 23.712C222.1 23.904 221.93 24 221.674 24Z"/>
<path d="M221.688 24V21.76H226.296V22.56C225.528 21.9413 224.909 21.12 224.439 20.096C223.991 19.0507 223.768 17.7813 223.768 16.288C223.768 15.072 223.917 13.9947 224.215 13.056C224.535 12.1173 224.994 11.3173 225.592 10.656C226.189 9.99467 226.893 9.49334 227.704 9.15201C228.536 8.81067 229.464 8.64001 230.488 8.64001C231.234 8.64001 231.917 8.73601 232.536 8.92801C233.154 9.09867 233.687 9.344 234.135 9.66401C234.605 9.96267 234.957 10.336 235.191 10.784C235.447 11.2107 235.576 11.68 235.576 12.192C235.576 12.6827 235.469 13.0667 235.255 13.344C235.063 13.6213 234.818 13.824 234.52 13.952C234.285 14.0587 234.018 14.1333 233.719 14.176C233.442 14.1973 233.218 14.1973 233.048 14.176C233.048 13.3867 232.898 12.7573 232.6 12.288C232.301 11.8187 231.885 11.456 231.352 11.2C230.84 10.944 230.242 10.752 229.559 10.624L231.415 10.976C230.391 10.8053 229.528 10.9013 228.824 11.264C228.12 11.6053 227.575 12.192 227.191 13.024C226.829 13.856 226.648 14.912 226.648 16.192C226.648 17.92 226.989 19.2853 227.671 20.288C228.354 21.2693 229.357 21.76 230.68 21.76H234.967C235.373 21.76 235.65 21.8773 235.799 22.112C235.97 22.3253 236.055 22.5813 236.055 22.88C236.055 23.1787 235.97 23.4453 235.799 23.68C235.65 23.8933 235.373 24 234.967 24H221.688ZM221.688 24C221.431 24 221.261 23.904 221.176 23.712C221.09 23.4987 221.048 23.2213 221.048 22.88C221.048 22.5173 221.09 22.24 221.176 22.048C221.261 21.856 221.431 21.76 221.688 21.76V24Z"/>
<path d="M240.813 24C240.408 24 240.12 23.8933 239.949 23.68C239.8 23.4453 239.725 23.1787 239.725 22.88C239.725 22.5813 239.8 22.3253 239.949 22.112C240.12 21.8773 240.408 21.76 240.813 21.76H245.101C246.424 21.76 247.426 21.2693 248.109 20.288C248.792 19.2853 249.133 17.92 249.133 16.192C249.133 14.912 248.952 13.856 248.589 13.024C248.226 12.192 247.682 11.6053 246.957 11.264C246.253 10.9013 245.389 10.8053 244.365 10.976L246.221 10.624C245.56 10.752 244.962 10.944 244.429 11.2C243.896 11.456 243.48 11.8187 243.181 12.288C242.882 12.7573 242.733 13.3867 242.733 14.176C242.562 14.1973 242.328 14.1973 242.029 14.176C241.752 14.1333 241.496 14.0587 241.261 13.952C240.984 13.824 240.738 13.6213 240.525 13.344C240.312 13.0667 240.205 12.6827 240.205 12.192C240.205 11.68 240.322 11.2107 240.557 10.784C240.813 10.336 241.165 9.96267 241.613 9.66401C242.082 9.344 242.626 9.09867 243.245 8.92801C243.864 8.73601 244.546 8.64001 245.293 8.64001C246.317 8.64001 247.234 8.81067 248.045 9.15201C248.877 9.49334 249.592 9.99467 250.189 10.656C250.786 11.3173 251.234 12.1173 251.533 13.056C251.853 13.9947 252.013 15.072 252.013 16.288C252.013 18.0587 251.693 19.52 251.053 20.672C250.413 21.8027 249.57 22.6453 248.525 23.2C247.48 23.7333 246.338 24 245.101 24H240.813Z"/>
<path d="M258.393 24C257.71 24 257.305 23.7973 257.177 23.392C257.049 22.9867 256.985 22.5067 256.985 21.952V7.616C256.985 6.95467 256.889 6.35734 256.697 5.82401C256.526 5.29067 256.302 4.84267 256.025 4.48001C255.748 4.11734 255.481 3.85067 255.225 3.68C255.31 3.57334 255.449 3.456 255.641 3.328C255.854 3.20001 256.11 3.09334 256.409 3.00801C256.708 2.92267 257.017 2.88 257.337 2.88C257.742 2.88 258.137 2.98667 258.521 3.2C258.905 3.392 259.225 3.744 259.481 4.256C259.737 4.768 259.865 5.49334 259.865 6.432V21.952C259.865 22.5067 259.79 22.9867 259.641 23.392C259.492 23.7973 259.076 24 258.393 24Z"/>
</mask>
<path d="M13.248 31.552C10.944 31.552 8.96 31.1787 7.296 30.432C5.632 29.7067 4.352 28.64 3.456 27.232C2.56 25.8453 2.112 24.1493 2.112 22.144C2.112 21.4187 2.176 20.6827 2.304 19.936C2.432 19.1893 2.624 18.5067 2.88 17.888C3.15733 17.248 3.49867 16.736 3.904 16.352C4.33067 15.968 4.84267 15.776 5.44 15.776C5.696 15.776 5.92 15.808 6.112 15.872C6.32533 15.936 6.50667 16.0213 6.656 16.128C6.80533 16.2133 6.912 16.3093 6.976 16.416C6.54933 16.864 6.112 17.6 5.664 18.624C5.216 19.648 4.992 20.8747 4.992 22.304C4.992 23.2427 5.13067 24.128 5.408 24.96C5.68533 25.8133 6.144 26.56 6.784 27.2C7.424 27.8613 8.27733 28.3733 9.344 28.736C10.432 29.12 11.7867 29.312 13.408 29.312C15.328 29.312 16.896 29.0667 18.112 28.576C19.3493 28.0853 20.3093 27.4667 20.992 26.72C21.6747 25.9947 22.144 25.2587 22.4 24.512C22.656 23.7653 22.784 23.136 22.784 22.624L25.664 22.56C25.664 24.3093 25.1307 25.856 24.064 27.2C23.0187 28.5653 21.5573 29.632 19.68 30.4C17.824 31.168 15.68 31.552 13.248 31.552ZM20.8 24C20.096 24 19.5307 23.904 19.104 23.712C18.6987 23.4987 18.3893 23.2427 18.176 22.944C17.984 22.624 17.8773 22.2933 17.856 21.952C17.8347 21.5893 17.8773 21.2693 17.984 20.992C18.2187 21.1413 18.5813 21.312 19.072 21.504C19.5627 21.6747 20.128 21.76 20.768 21.76H28.544V24H20.8ZM28.544 24V21.76C28.8 21.76 28.9707 21.856 29.056 22.048C29.1413 22.24 29.184 22.5173 29.184 22.88C29.184 23.2213 29.1413 23.4987 29.056 23.712C28.9707 23.904 28.8 24 28.544 24ZM15.808 37.152C15.3173 37.152 14.8907 36.9707 14.528 36.608C14.1653 36.2453 13.984 35.8187 13.984 35.328C13.984 34.816 14.1653 34.3787 14.528 34.016C14.8907 33.6533 15.3173 33.472 15.808 33.472C16.32 33.472 16.7467 33.6533 17.088 34.016C17.4507 34.3787 17.632 34.816 17.632 35.328C17.632 35.8187 17.4507 36.2453 17.088 36.608C16.7467 36.9707 16.32 37.152 15.808 37.152ZM11.136 37.152C10.6453 37.152 10.2187 36.9707 9.856 36.608C9.49333 36.2453 9.312 35.8187 9.312 35.328C9.312 34.816 9.49333 34.3787 9.856 34.016C10.2187 33.6533 10.6453 33.472 11.136 33.472C11.648 33.472 12.0747 33.6533 12.416 34.016C12.7787 34.3787 12.96 34.816 12.96 35.328C12.96 35.8187 12.7787 36.2453 12.416 36.608C12.0747 36.9707 11.648 37.152 11.136 37.152Z" stroke="url(#paint0_linear_25_4)" stroke-width="4" mask="url(#path-1-outside-1_25_4)"/>
<path d="M28.5312 24V21.76H30.6753C31.3579 21.76 31.9233 21.6 32.3713 21.28C32.8193 20.96 33.1606 20.5547 33.3952 20.064C33.6512 19.5733 33.8326 19.0613 33.9393 18.528C34.0673 17.9947 34.1419 17.5147 34.1632 17.088C34.1846 16.64 34.1953 16.32 34.1953 16.128C34.1953 15.552 34.1419 14.8693 34.0353 14.08C33.9286 13.2907 33.6833 12.4693 33.2993 11.616C32.9366 10.7627 32.3286 9.984 31.4753 9.28C31.5819 9.17334 31.7099 9.07734 31.8592 8.99201C32.0299 8.88534 32.2219 8.80001 32.4352 8.73601C32.6486 8.67201 32.8939 8.64001 33.1712 8.64001C33.9179 8.64001 34.5366 8.88534 35.0273 9.37601C35.5393 9.86667 35.9446 10.5067 36.2433 11.296C36.5419 12.064 36.7553 12.8853 36.8833 13.76C37.0113 14.6347 37.0752 15.4453 37.0752 16.192C37.0752 18.6453 36.5099 20.5653 35.3792 21.952C34.2486 23.3173 32.6806 24 30.6753 24H28.5312ZM28.5312 24C28.2752 24 28.1046 23.904 28.0193 23.712C27.9339 23.4987 27.8913 23.2213 27.8913 22.88C27.8913 22.5173 27.9339 22.24 28.0193 22.048C28.1046 21.856 28.2752 21.76 28.5312 21.76V24ZM33.2673 30.24C32.7339 30.24 32.2859 30.0587 31.9233 29.696C31.5606 29.3333 31.3792 28.9067 31.3792 28.416C31.3792 27.904 31.5606 27.4667 31.9233 27.104C32.2859 26.7413 32.7339 26.56 33.2673 26.56C33.7579 26.56 34.1846 26.7413 34.5472 27.104C34.9099 27.4667 35.0913 27.904 35.0913 28.416C35.0913 28.9067 34.9099 29.3333 34.5472 29.696C34.1846 30.0587 33.7579 30.24 33.2673 30.24Z" stroke="url(#paint1_linear_25_4)" stroke-width="4" mask="url(#path-1-outside-1_25_4)"/>
<path d="M45.3963 24V21.76H49.3643V24H45.3963ZM41.4922 31.328C41.2149 31.328 40.9696 31.296 40.7562 31.232C40.5429 31.168 40.3509 31.0827 40.1802 30.976C40.0309 30.8693 39.9029 30.7733 39.7962 30.688C40.6496 29.9627 41.2576 29.1947 41.6203 28.384C42.0043 27.5733 42.2496 26.7733 42.3563 25.984C42.4629 25.216 42.5163 24.5547 42.5163 24V10.048C42.5163 9.51467 42.6549 9.152 42.9323 8.96C43.2096 8.74667 43.5509 8.64001 43.9562 8.64001C44.3616 8.64001 44.7029 8.74667 44.9803 8.96C45.2576 9.152 45.3963 9.51467 45.3963 10.048V24C45.3963 24.7467 45.3323 25.5467 45.2043 26.4C45.0763 27.2533 44.8629 28.0533 44.5643 28.8C44.2656 29.5467 43.8603 30.1547 43.3483 30.624C42.8576 31.0933 42.2389 31.328 41.4922 31.328ZM49.3643 24V21.76C49.6203 21.76 49.7909 21.856 49.8763 22.048C49.9616 22.24 50.0042 22.5173 50.0042 22.88C50.0042 23.2213 49.9616 23.4987 49.8763 23.712C49.7909 23.904 49.6203 24 49.3643 24Z" stroke="url(#paint2_linear_25_4)" stroke-width="4" mask="url(#path-1-outside-1_25_4)"/>
<path d="M49.375 24V21.76H54.879C56.1803 21.76 57.4177 21.568 58.591 21.184C59.7857 20.7787 60.8523 20.2453 61.791 19.584C62.7297 18.9013 63.4657 18.1333 63.999 17.28C64.5537 16.4267 64.831 15.5413 64.831 14.624C64.831 13.4293 64.3617 12.512 63.423 11.872C62.4843 11.2107 61.151 10.88 59.423 10.88C57.695 10.88 56.3617 11.2107 55.423 11.872C54.4843 12.512 54.015 13.4293 54.015 14.624C54.015 15.5413 54.2817 16.4267 54.815 17.28C55.3697 18.1333 56.1163 18.9013 57.055 19.584C57.9937 20.2453 59.0603 20.7787 60.255 21.184C61.4497 21.568 62.687 21.76 63.967 21.76H69.471V24H63.967C62.495 24 61.0017 23.7653 59.487 23.296C57.9723 22.8267 56.5857 22.176 55.327 21.344C54.0683 20.4907 53.055 19.4987 52.287 18.368C51.519 17.216 51.135 15.968 51.135 14.624C51.135 13.5573 51.3803 12.6507 51.871 11.904C52.3617 11.136 53.0123 10.5173 53.823 10.048C54.655 9.55734 55.551 9.20534 56.511 8.99201C57.4923 8.75734 58.463 8.64001 59.423 8.64001C60.383 8.64001 61.343 8.75734 62.303 8.99201C63.2843 9.20534 64.1803 9.54667 64.991 10.016C65.8017 10.4853 66.4523 11.104 66.943 11.872C67.455 12.6187 67.711 13.536 67.711 14.624C67.711 15.968 67.327 17.216 66.559 18.368C65.8123 19.4987 64.8097 20.4907 63.551 21.344C62.2923 22.176 60.9057 22.8267 59.391 23.296C57.8763 23.7653 56.3723 24 54.879 24H49.375ZM49.375 24C49.119 24 48.9483 23.904 48.863 23.712C48.7777 23.4987 48.735 23.2213 48.735 22.88C48.735 22.5173 48.7777 22.24 48.863 22.048C48.9483 21.856 49.119 21.76 49.375 21.76V24ZM69.471 24V21.76C69.727 21.76 69.8977 21.856 69.983 22.048C70.0683 22.24 70.111 22.5173 70.111 22.88C70.111 23.2213 70.0683 23.4987 69.983 23.712C69.8977 23.904 69.727 24 69.471 24Z" stroke="url(#paint3_linear_25_4)" stroke-width="4" mask="url(#path-1-outside-1_25_4)"/>
<path d="M69.4688 24V21.76H70.2688C70.9301 21.76 71.4634 21.568 71.8688 21.184C72.2954 20.8 72.6048 20.32 72.7968 19.744C73.0101 19.168 73.1168 18.5813 73.1168 17.984V7.616C73.1168 6.95467 73.0208 6.35734 72.8288 5.82401C72.6581 5.29067 72.4341 4.84267 72.1568 4.48001C71.8794 4.11734 71.6128 3.85067 71.3568 3.68C71.4421 3.57334 71.5808 3.456 71.7728 3.328C71.9861 3.20001 72.2314 3.09334 72.5088 3.00801C72.8074 2.92267 73.1168 2.88 73.4368 2.88C73.8421 2.88 74.2368 2.98667 74.6208 3.2C75.0261 3.392 75.3567 3.744 75.6127 4.256C75.8687 4.768 75.9967 5.49334 75.9967 6.432V17.984C75.9967 19.136 75.7514 20.1707 75.2607 21.088C74.7701 21.984 74.0981 22.6987 73.2448 23.232C72.3914 23.744 71.3994 24 70.2688 24H69.4688ZM69.4688 24C69.2127 24 69.0421 23.904 68.9567 23.712C68.8714 23.4987 68.8288 23.2213 68.8288 22.88C68.8288 22.5173 68.8714 22.24 68.9567 22.048C69.0421 21.856 69.2127 21.76 69.4688 21.76V24Z" stroke="url(#paint4_linear_25_4)" stroke-width="4" mask="url(#path-1-outside-1_25_4)"/>
<path d="M82.8305 24C82.1478 24 81.7425 23.7973 81.6145 23.392C81.4865 22.9867 81.4225 22.5067 81.4225 21.952V7.616C81.4225 6.95467 81.3265 6.35734 81.1345 5.82401C80.9638 5.29067 80.7398 4.84267 80.4625 4.48001C80.1852 4.11734 79.9185 3.85067 79.6625 3.68C79.7478 3.57334 79.8865 3.456 80.0785 3.328C80.2918 3.20001 80.5478 3.09334 80.8465 3.00801C81.1452 2.92267 81.4545 2.88 81.7745 2.88C82.1798 2.88 82.5745 2.98667 82.9585 3.2C83.3425 3.392 83.6625 3.744 83.9185 4.256C84.1745 4.768 84.3025 5.49334 84.3025 6.432V21.952C84.3025 22.5067 84.2278 22.9867 84.0785 23.392C83.9292 23.7973 83.5132 24 82.8305 24Z" stroke="url(#paint5_linear_25_4)" stroke-width="4" mask="url(#path-1-outside-1_25_4)"/>
<path d="M100.146 24C99.1222 24 98.3009 23.7973 97.6823 23.392C97.0849 22.9653 96.6476 22.4107 96.3702 21.728C96.1142 21.0453 95.9863 20.2987 95.9863 19.488V15.36C95.9863 14.848 96.1249 14.496 96.4023 14.304C96.6796 14.0907 97.0209 13.984 97.4262 13.984C97.8316 13.984 98.1729 14.0907 98.4502 14.304C98.7276 14.496 98.8662 14.848 98.8662 15.36V18.56C98.8662 19.7333 99.0476 20.5653 99.4102 21.056C99.7729 21.5253 100.477 21.76 101.522 21.76H112.658C113.32 21.76 113.853 21.568 114.258 21.184C114.685 20.8 114.994 20.32 115.186 19.744C115.4 19.168 115.506 18.5813 115.506 17.984V7.616C115.506 6.95467 115.41 6.35734 115.218 5.82401C115.026 5.29067 114.792 4.84267 114.514 4.48001C114.258 4.11734 114.002 3.85067 113.746 3.68C113.832 3.57334 113.97 3.456 114.162 3.328C114.376 3.20001 114.632 3.09334 114.93 3.00801C115.229 2.92267 115.538 2.88 115.858 2.88C116.264 2.88 116.658 2.98667 117.042 3.2C117.426 3.392 117.746 3.744 118.002 4.256C118.258 4.768 118.386 5.49334 118.386 6.432V17.984C118.386 19.136 118.141 20.1707 117.65 21.088C117.16 21.984 116.488 22.6987 115.634 23.232C114.781 23.744 113.789 24 112.658 24H100.146ZM104.146 13.76C103.954 13.504 103.869 13.2693 103.89 13.056C103.912 12.8213 103.986 12.64 104.114 12.512C104.264 12.3627 104.445 12.2773 104.658 12.256C104.872 12.2133 105.085 12.2347 105.298 12.32C105.085 12.0853 104.85 11.7227 104.594 11.232C104.36 10.72 104.242 10.176 104.242 9.6C104.242 9.024 104.37 8.512 104.626 8.064C104.904 7.59467 105.298 7.232 105.81 6.97601C106.344 6.72001 106.973 6.592 107.698 6.592C108.317 6.592 108.765 6.67734 109.042 6.84801C109.32 6.99734 109.49 7.168 109.554 7.36C109.64 7.552 109.682 7.72267 109.682 7.87201C109.682 8.21334 109.586 8.46934 109.394 8.64001C109.224 8.78934 109.032 8.87467 108.818 8.89601C108.605 8.89601 108.445 8.85334 108.338 8.76801C108.36 8.34134 108.221 8.02134 107.922 7.808C107.645 7.57334 107.357 7.43467 107.058 7.392C106.845 7.43467 106.621 7.616 106.386 7.936C106.173 8.256 106.066 8.72534 106.066 9.344C106.066 10.0693 106.216 10.6133 106.514 10.976C106.813 11.3173 107.165 11.5413 107.57 11.648C107.997 11.7547 108.37 11.808 108.69 11.808C108.946 11.808 109.17 11.7973 109.362 11.776C109.554 11.7333 109.693 11.7013 109.778 11.68C110.12 11.68 110.322 11.776 110.386 11.968C110.472 12.16 110.482 12.352 110.418 12.544C110.354 12.736 110.258 12.832 110.13 12.832C109.64 12.8747 109.128 12.928 108.594 12.992C108.061 13.056 107.538 13.12 107.026 13.184C106.536 13.248 106.077 13.312 105.65 13.376C105.245 13.44 104.904 13.504 104.626 13.568C104.349 13.632 104.189 13.696 104.146 13.76Z" stroke="url(#paint6_linear_25_4)" stroke-width="4" mask="url(#path-1-outside-1_25_4)"/>
<path d="M125.237 24C124.554 24 124.149 23.7973 124.021 23.392C123.893 22.9867 123.829 22.5067 123.829 21.952V7.616C123.829 6.95467 123.733 6.35734 123.541 5.82401C123.37 5.29067 123.146 4.84267 122.869 4.48001C122.591 4.11734 122.325 3.85067 122.069 3.68C122.154 3.57334 122.293 3.456 122.485 3.328C122.698 3.20001 122.954 3.09334 123.253 3.00801C123.551 2.92267 123.861 2.88 124.181 2.88C124.586 2.88 124.981 2.98667 125.365 3.2C125.749 3.392 126.069 3.744 126.325 4.256C126.581 4.768 126.709 5.49334 126.709 6.432V21.952C126.709 22.5067 126.634 22.9867 126.485 23.392C126.335 23.7973 125.919 24 125.237 24Z" stroke="url(#paint7_linear_25_4)" stroke-width="4" mask="url(#path-1-outside-1_25_4)"/>
<path d="M143.128 24V21.76H145.208V24H143.128ZM136.889 24C135.63 24 134.51 23.7013 133.529 23.104C132.547 22.4853 131.779 21.6 131.225 20.448C130.67 19.296 130.393 17.9093 130.393 16.288C130.393 13.8773 131.043 12 132.344 10.656C133.667 9.312 135.427 8.64001 137.624 8.64001C139.246 8.64001 140.568 8.97067 141.592 9.63201C142.616 10.2933 143.128 11.1467 143.128 12.192V24H140.249V12.192C140.249 11.7867 140.035 11.4667 139.609 11.232C139.203 10.9973 138.542 10.88 137.624 10.88C136.216 10.88 135.139 11.3387 134.393 12.256C133.646 13.152 133.273 14.496 133.273 16.288C133.273 18.0587 133.667 19.4133 134.456 20.352C135.246 21.2907 136.376 21.76 137.848 21.76H143.128V24H136.889ZM139.225 31.328C138.947 31.328 138.702 31.296 138.488 31.232C138.275 31.168 138.083 31.0827 137.913 30.976C137.763 30.8693 137.635 30.7733 137.529 30.688C138.382 29.9627 138.99 29.1947 139.353 28.384C139.737 27.5733 139.982 26.7733 140.089 25.984C140.195 25.216 140.249 24.5547 140.249 24V21.76H143.128V24C143.128 24.7467 143.064 25.5467 142.936 26.4C142.808 27.2533 142.595 28.0533 142.296 28.8C141.998 29.5467 141.593 30.1547 141.081 30.624C140.59 31.0933 139.971 31.328 139.225 31.328ZM145.208 24V21.76C145.464 21.76 145.635 21.856 145.721 22.048C145.806 22.24 145.848 22.5173 145.848 22.88C145.848 23.2213 145.806 23.4987 145.721 23.712C145.635 23.904 145.464 24 145.208 24Z" stroke="url(#paint8_linear_25_4)" stroke-width="4" mask="url(#path-1-outside-1_25_4)"/>
<path d="M145.219 24V21.76H146.019C146.68 21.76 147.213 21.568 147.619 21.184C148.045 20.8 148.355 20.32 148.547 19.744C148.76 19.168 148.867 18.5813 148.867 17.984V10.048C148.867 9.51467 149.005 9.152 149.283 8.96C149.56 8.74667 149.901 8.64001 150.307 8.64001C150.712 8.64001 151.053 8.74667 151.331 8.96C151.608 9.152 151.747 9.51467 151.747 10.048V17.984C151.747 19.136 151.501 20.1707 151.011 21.088C150.52 21.984 149.848 22.6987 148.995 23.232C148.141 23.744 147.149 24 146.019 24H145.219ZM154.595 24C153.485 24 152.493 23.744 151.619 23.232C150.765 22.6987 150.093 21.984 149.603 21.088C149.112 20.1707 148.867 19.136 148.867 17.984H151.747C151.747 18.5813 151.843 19.168 152.035 19.744C152.248 20.32 152.568 20.8 152.995 21.184C153.421 21.568 153.955 21.76 154.595 21.76H155.747V24H154.595ZM155.747 24V21.76C156.003 21.76 156.173 21.856 156.259 22.048C156.344 22.24 156.387 22.5173 156.387 22.88C156.387 23.2213 156.344 23.4987 156.259 23.712C156.173 23.904 156.003 24 155.747 24ZM145.219 24C144.963 24 144.792 23.904 144.707 23.712C144.621 23.4987 144.579 23.2213 144.579 22.88C144.579 22.5173 144.621 22.24 144.707 22.048C144.792 21.856 144.963 21.76 145.219 21.76V24ZM152.675 6.56001C152.184 6.56001 151.757 6.37867 151.395 6.016C151.032 5.65334 150.851 5.22667 150.851 4.736C150.851 4.224 151.032 3.78667 151.395 3.42401C151.757 3.06134 152.184 2.88 152.675 2.88C153.187 2.88 153.613 3.06134 153.955 3.42401C154.317 3.78667 154.499 4.224 154.499 4.736C154.499 5.22667 154.317 5.65334 153.955 6.016C153.613 6.37867 153.187 6.56001 152.675 6.56001ZM148.003 6.56001C147.512 6.56001 147.085 6.37867 146.723 6.016C146.36 5.65334 146.179 5.22667 146.179 4.736C146.179 4.224 146.36 3.78667 146.723 3.42401C147.085 3.06134 147.512 2.88 148.003 2.88C148.515 2.88 148.941 3.06134 149.283 3.42401C149.645 3.78667 149.827 4.224 149.827 4.736C149.827 5.22667 149.645 5.65334 149.283 6.016C148.941 6.37867 148.515 6.56001 148.003 6.56001Z" stroke="url(#paint9_linear_25_4)" stroke-width="4" mask="url(#path-1-outside-1_25_4)"/>
<path d="M174.086 24C172.977 24 171.985 23.744 171.11 23.232C170.257 22.6987 169.585 21.984 169.094 21.088C168.603 20.1707 168.358 19.136 168.358 17.984V17.088H171.238V17.984C171.238 18.5813 171.334 19.168 171.526 19.744C171.739 20.32 172.059 20.8 172.486 21.184C172.913 21.568 173.446 21.76 174.086 21.76H175.238V24H174.086ZM155.75 24V21.76H165.51C166.385 21.76 167.078 21.4187 167.59 20.736C168.102 20.032 168.358 18.8373 168.358 17.152C168.358 14.8053 167.814 13.1733 166.726 12.256C165.659 11.3387 164.113 10.88 162.086 10.88C161.659 10.88 161.275 10.8907 160.934 10.912C160.593 10.9333 160.283 10.9653 160.006 11.008C159.729 11.0293 159.462 11.04 159.206 11.04C158.694 11.04 158.278 10.9653 157.958 10.816C157.638 10.6667 157.393 10.4533 157.222 10.176C157.073 9.87734 156.955 9.54667 156.87 9.184C156.827 8.94934 156.785 8.71467 156.742 8.48001C156.721 8.22401 156.721 8.05334 156.742 7.968C156.955 8.11734 157.243 8.28801 157.606 8.48001C157.969 8.67201 158.459 8.76801 159.078 8.76801C159.291 8.76801 159.537 8.75734 159.814 8.73601C160.113 8.71467 160.443 8.69334 160.806 8.672C161.169 8.65067 161.563 8.64001 161.99 8.64001C163.633 8.64001 165.041 8.84267 166.214 9.248C167.387 9.63201 168.337 10.1973 169.062 10.944C169.809 11.6907 170.353 12.5867 170.694 13.632C171.057 14.6773 171.238 15.84 171.238 17.12C171.238 18.8267 170.971 20.192 170.438 21.216C169.905 22.2187 169.201 22.9333 168.326 23.36C167.473 23.7867 166.534 24 165.51 24H155.75ZM155.75 24C155.494 24 155.323 23.904 155.238 23.712C155.153 23.4987 155.11 23.2213 155.11 22.88C155.11 22.5173 155.153 22.24 155.238 22.048C155.323 21.856 155.494 21.76 155.75 21.76V24ZM175.238 24V21.76C175.494 21.76 175.665 21.856 175.75 22.048C175.835 22.24 175.878 22.5173 175.878 22.88C175.878 23.2213 175.835 23.4987 175.75 23.712C175.665 23.904 175.494 24 175.238 24Z" stroke="url(#paint10_linear_25_4)" stroke-width="4" mask="url(#path-1-outside-1_25_4)"/>
<path d="M175.25 24V21.76H182.066C183.538 21.76 184.669 21.2907 185.458 20.352C186.247 19.4133 186.642 18.0587 186.642 16.288C186.642 14.496 186.269 13.152 185.522 12.256C184.775 11.3387 183.698 10.88 182.29 10.88C181.373 10.88 180.701 10.9973 180.274 11.232C179.869 11.4667 179.666 11.7867 179.666 12.192V24H176.786V12.192C176.786 11.1467 177.298 10.2933 178.322 9.63201C179.346 8.97067 180.669 8.64001 182.29 8.64001C184.509 8.64001 186.269 9.312 187.57 10.656C188.871 12 189.522 13.8773 189.522 16.288C189.522 17.9093 189.245 19.296 188.69 20.448C188.135 21.6 187.367 22.4853 186.386 23.104C185.405 23.7013 184.285 24 183.026 24H175.25ZM175.25 24C174.994 24 174.823 23.904 174.738 23.712C174.653 23.4987 174.61 23.2213 174.61 22.88C174.61 22.5173 174.653 22.24 174.738 22.048C174.823 21.856 174.994 21.76 175.25 21.76V24Z" stroke="url(#paint11_linear_25_4)" stroke-width="4" mask="url(#path-1-outside-1_25_4)"/>
<path d="M220.522 24C219.412 24 218.42 23.744 217.546 23.232C216.692 22.6987 216.02 21.984 215.53 21.088C215.039 20.1707 214.794 19.136 214.794 17.984V16.352H217.674V17.984C217.674 18.5813 217.77 19.168 217.962 19.744C218.175 20.32 218.495 20.8 218.922 21.184C219.348 21.568 219.882 21.76 220.522 21.76H221.674V24H220.522ZM202.474 32.896C202.282 32.896 202.09 32.8747 201.898 32.832C201.706 32.7893 201.524 32.736 201.354 32.672C201.183 32.608 201.023 32.544 200.874 32.48C201.087 32.288 201.279 32.0427 201.45 31.744C201.642 31.4667 201.802 31.1253 201.93 30.72C202.058 30.3147 202.122 29.856 202.122 29.344V27.296C202.122 26.1867 202.399 25.216 202.954 24.384C203.508 23.552 204.276 22.912 205.258 22.464C206.26 21.9947 207.412 21.76 208.714 21.76H210.218C211.69 21.76 212.82 21.2907 213.61 20.352C214.399 19.4133 214.794 18.0587 214.794 16.288C214.794 14.496 214.42 13.152 213.674 12.256C212.927 11.3387 211.85 10.88 210.442 10.88C209.524 10.88 208.852 10.9973 208.426 11.232C208.02 11.4667 207.818 11.7867 207.818 12.192V22.944H204.938V12.192C204.938 11.168 205.45 10.3253 206.474 9.66401C207.498 8.98134 208.82 8.64001 210.442 8.64001C212.66 8.64001 214.42 9.312 215.722 10.656C217.023 12 217.674 13.8773 217.674 16.288C217.674 17.9093 217.396 19.296 216.842 20.448C216.287 21.6 215.519 22.4853 214.538 23.104C213.556 23.7013 212.436 24 211.178 24H208.714C207.754 24 207.007 24.16 206.474 24.48C205.94 24.8213 205.556 25.2373 205.322 25.728C205.108 26.24 205.002 26.7627 205.002 27.296V29.344C205.002 30.2613 204.874 30.976 204.618 31.488C204.362 32.0213 204.042 32.384 203.658 32.576C203.274 32.7893 202.879 32.896 202.474 32.896ZM221.674 24V21.76C221.93 21.76 222.1 21.856 222.186 22.048C222.271 22.24 222.314 22.5173 222.314 22.88C222.314 23.2213 222.271 23.4987 222.186 23.712C222.1 23.904 221.93 24 221.674 24Z" stroke="url(#paint12_linear_25_4)" stroke-width="4" mask="url(#path-1-outside-1_25_4)"/>
<path d="M221.688 24V21.76H226.296V22.56C225.528 21.9413 224.909 21.12 224.439 20.096C223.991 19.0507 223.768 17.7813 223.768 16.288C223.768 15.072 223.917 13.9947 224.215 13.056C224.535 12.1173 224.994 11.3173 225.592 10.656C226.189 9.99467 226.893 9.49334 227.704 9.15201C228.536 8.81067 229.464 8.64001 230.488 8.64001C231.234 8.64001 231.917 8.73601 232.536 8.92801C233.154 9.09867 233.687 9.344 234.135 9.66401C234.605 9.96267 234.957 10.336 235.191 10.784C235.447 11.2107 235.576 11.68 235.576 12.192C235.576 12.6827 235.469 13.0667 235.255 13.344C235.063 13.6213 234.818 13.824 234.52 13.952C234.285 14.0587 234.018 14.1333 233.719 14.176C233.442 14.1973 233.218 14.1973 233.048 14.176C233.048 13.3867 232.898 12.7573 232.6 12.288C232.301 11.8187 231.885 11.456 231.352 11.2C230.84 10.944 230.242 10.752 229.559 10.624L231.415 10.976C230.391 10.8053 229.528 10.9013 228.824 11.264C228.12 11.6053 227.575 12.192 227.191 13.024C226.829 13.856 226.648 14.912 226.648 16.192C226.648 17.92 226.989 19.2853 227.671 20.288C228.354 21.2693 229.357 21.76 230.68 21.76H234.967C235.373 21.76 235.65 21.8773 235.799 22.112C235.97 22.3253 236.055 22.5813 236.055 22.88C236.055 23.1787 235.97 23.4453 235.799 23.68C235.65 23.8933 235.373 24 234.967 24H221.688ZM221.688 24C221.431 24 221.261 23.904 221.176 23.712C221.09 23.4987 221.048 23.2213 221.048 22.88C221.048 22.5173 221.09 22.24 221.176 22.048C221.261 21.856 221.431 21.76 221.688 21.76V24Z" stroke="url(#paint13_linear_25_4)" stroke-width="4" mask="url(#path-1-outside-1_25_4)"/>
<path d="M240.813 24C240.408 24 240.12 23.8933 239.949 23.68C239.8 23.4453 239.725 23.1787 239.725 22.88C239.725 22.5813 239.8 22.3253 239.949 22.112C240.12 21.8773 240.408 21.76 240.813 21.76H245.101C246.424 21.76 247.426 21.2693 248.109 20.288C248.792 19.2853 249.133 17.92 249.133 16.192C249.133 14.912 248.952 13.856 248.589 13.024C248.226 12.192 247.682 11.6053 246.957 11.264C246.253 10.9013 245.389 10.8053 244.365 10.976L246.221 10.624C245.56 10.752 244.962 10.944 244.429 11.2C243.896 11.456 243.48 11.8187 243.181 12.288C242.882 12.7573 242.733 13.3867 242.733 14.176C242.562 14.1973 242.328 14.1973 242.029 14.176C241.752 14.1333 241.496 14.0587 241.261 13.952C240.984 13.824 240.738 13.6213 240.525 13.344C240.312 13.0667 240.205 12.6827 240.205 12.192C240.205 11.68 240.322 11.2107 240.557 10.784C240.813 10.336 241.165 9.96267 241.613 9.66401C242.082 9.344 242.626 9.09867 243.245 8.92801C243.864 8.73601 244.546 8.64001 245.293 8.64001C246.317 8.64001 247.234 8.81067 248.045 9.15201C248.877 9.49334 249.592 9.99467 250.189 10.656C250.786 11.3173 251.234 12.1173 251.533 13.056C251.853 13.9947 252.013 15.072 252.013 16.288C252.013 18.0587 251.693 19.52 251.053 20.672C250.413 21.8027 249.57 22.6453 248.525 23.2C247.48 23.7333 246.338 24 245.101 24H240.813Z" stroke="url(#paint14_linear_25_4)" stroke-width="4" mask="url(#path-1-outside-1_25_4)"/>
<path d="M258.393 24C257.71 24 257.305 23.7973 257.177 23.392C257.049 22.9867 256.985 22.5067 256.985 21.952V7.616C256.985 6.95467 256.889 6.35734 256.697 5.82401C256.526 5.29067 256.302 4.84267 256.025 4.48001C255.748 4.11734 255.481 3.85067 255.225 3.68C255.31 3.57334 255.449 3.456 255.641 3.328C255.854 3.20001 256.11 3.09334 256.409 3.00801C256.708 2.92267 257.017 2.88 257.337 2.88C257.742 2.88 258.137 2.98667 258.521 3.2C258.905 3.392 259.225 3.744 259.481 4.256C259.737 4.768 259.865 5.49334 259.865 6.432V21.952C259.865 22.5067 259.79 22.9867 259.641 23.392C259.492 23.7973 259.076 24 258.393 24Z" stroke="url(#paint15_linear_25_4)" stroke-width="4" mask="url(#path-1-outside-1_25_4)"/>
<defs>
<linearGradient id="paint0_linear_25_4" x1="260" y1="2.99996" x2="2" y2="2.99994" gradientUnits="userSpaceOnUse">
<stop stop-color="white"/>
<stop offset="1" stop-color="#00E472"/>
</linearGradient>
<linearGradient id="paint1_linear_25_4" x1="260" y1="2.99996" x2="2" y2="2.99994" gradientUnits="userSpaceOnUse">
<stop stop-color="white"/>
<stop offset="1" stop-color="#00E472"/>
</linearGradient>
<linearGradient id="paint2_linear_25_4" x1="260" y1="2.99996" x2="2" y2="2.99994" gradientUnits="userSpaceOnUse">
<stop stop-color="white"/>
<stop offset="1" stop-color="#00E472"/>
</linearGradient>
<linearGradient id="paint3_linear_25_4" x1="260" y1="2.99996" x2="2" y2="2.99994" gradientUnits="userSpaceOnUse">
<stop stop-color="white"/>
<stop offset="1" stop-color="#00E472"/>
</linearGradient>
<linearGradient id="paint4_linear_25_4" x1="260" y1="2.99996" x2="2" y2="2.99994" gradientUnits="userSpaceOnUse">
<stop stop-color="white"/>
<stop offset="1" stop-color="#00E472"/>
</linearGradient>
<linearGradient id="paint5_linear_25_4" x1="260" y1="2.99996" x2="2" y2="2.99994" gradientUnits="userSpaceOnUse">
<stop stop-color="white"/>
<stop offset="1" stop-color="#00E472"/>
</linearGradient>
<linearGradient id="paint6_linear_25_4" x1="260" y1="2.99996" x2="2" y2="2.99994" gradientUnits="userSpaceOnUse">
<stop stop-color="white"/>
<stop offset="1" stop-color="#00E472"/>
</linearGradient>
<linearGradient id="paint7_linear_25_4" x1="260" y1="2.99996" x2="2" y2="2.99994" gradientUnits="userSpaceOnUse">
<stop stop-color="white"/>
<stop offset="1" stop-color="#00E472"/>
</linearGradient>
<linearGradient id="paint8_linear_25_4" x1="260" y1="2.99996" x2="2" y2="2.99994" gradientUnits="userSpaceOnUse">
<stop stop-color="white"/>
<stop offset="1" stop-color="#00E472"/>
</linearGradient>
<linearGradient id="paint9_linear_25_4" x1="260" y1="2.99996" x2="2" y2="2.99994" gradientUnits="userSpaceOnUse">
<stop stop-color="white"/>
<stop offset="1" stop-color="#00E472"/>
</linearGradient>
<linearGradient id="paint10_linear_25_4" x1="260" y1="2.99996" x2="2" y2="2.99994" gradientUnits="userSpaceOnUse">
<stop stop-color="white"/>
<stop offset="1" stop-color="#00E472"/>
</linearGradient>
<linearGradient id="paint11_linear_25_4" x1="260" y1="2.99996" x2="2" y2="2.99994" gradientUnits="userSpaceOnUse">
<stop stop-color="white"/>
<stop offset="1" stop-color="#00E472"/>
</linearGradient>
<linearGradient id="paint12_linear_25_4" x1="260" y1="2.99996" x2="2" y2="2.99994" gradientUnits="userSpaceOnUse">
<stop stop-color="white"/>
<stop offset="1" stop-color="#00E472"/>
</linearGradient>
<linearGradient id="paint13_linear_25_4" x1="260" y1="2.99996" x2="2" y2="2.99994" gradientUnits="userSpaceOnUse">
<stop stop-color="white"/>
<stop offset="1" stop-color="#00E472"/>
</linearGradient>
<linearGradient id="paint14_linear_25_4" x1="260" y1="2.99996" x2="2" y2="2.99994" gradientUnits="userSpaceOnUse">
<stop stop-color="white"/>
<stop offset="1" stop-color="#00E472"/>
</linearGradient>
<linearGradient id="paint15_linear_25_4" x1="260" y1="2.99996" x2="2" y2="2.99994" gradientUnits="userSpaceOnUse">
<stop stop-color="white"/>
<stop offset="1" stop-color="#00E472"/>
</linearGradient>
</defs>
</svg>
