<svg id="wave" style="transform:rotate(0deg); transition: 0.3s" viewBox="0 0 1440 490" version="1.1" xmlns="http://www.w3.org/2000/svg"><defs><linearGradient id="sw-gradient-0" x1="0" x2="0" y1="1" y2="0"><stop stop-color="rgba(0, 157.418, 78.709, 1)" offset="0%"></stop><stop stop-color="rgba(0, 171.079, 85.54, 1)" offset="100%"></stop></linearGradient></defs><path style="transform:translate(0, 0px); opacity:1" fill="url(#sw-gradient-0)" d="M0,147L80,179.7C160,212,320,278,480,326.7C640,376,800,408,960,400.2C1120,392,1280,343,1440,294C1600,245,1760,196,1920,220.5C2080,245,2240,343,2400,392C2560,441,2720,441,2880,424.7C3040,408,3200,376,3360,334.8C3520,294,3680,245,3840,220.5C4000,196,4160,196,4320,171.5C4480,147,4640,98,4800,106.2C4960,114,5120,180,5280,187.8C5440,196,5600,147,5760,147C5920,147,6080,196,6240,196C6400,196,6560,147,6720,138.8C6880,131,7040,163,7200,196C7360,229,7520,261,7680,277.7C7840,294,8000,294,8160,253.2C8320,212,8480,131,8640,130.7C8800,131,8960,212,9120,204.2C9280,196,9440,98,9600,65.3C9760,33,9920,65,10080,122.5C10240,180,10400,261,10560,294C10720,327,10880,310,11040,253.2C11200,196,11360,98,11440,49L11520,0L11520,490L11440,490C11360,490,11200,490,11040,490C10880,490,10720,490,10560,490C10400,490,10240,490,10080,490C9920,490,9760,490,9600,490C9440,490,9280,490,9120,490C8960,490,8800,490,8640,490C8480,490,8320,490,8160,490C8000,490,7840,490,7680,490C7520,490,7360,490,7200,490C7040,490,6880,490,6720,490C6560,490,6400,490,6240,490C6080,490,5920,490,5760,490C5600,490,5440,490,5280,490C5120,490,4960,490,4800,490C4640,490,4480,490,4320,490C4160,490,4000,490,3840,490C3680,490,3520,490,3360,490C3200,490,3040,490,2880,490C2720,490,2560,490,2400,490C2240,490,2080,490,1920,490C1760,490,1600,490,1440,490C1280,490,1120,490,960,490C800,490,640,490,480,490C320,490,160,490,80,490L0,490Z"></path><defs><linearGradient id="sw-gradient-1" x1="0" x2="0" y1="1" y2="0"><stop stop-color="rgba(0, 187.017, 93.508, 1)" offset="0%"></stop><stop stop-color="rgba(0, 228, 114, 1)" offset="100%"></stop></linearGradient></defs><path style="transform:translate(0, 50px); opacity:0.9" fill="url(#sw-gradient-1)" d="M0,294L80,302.2C160,310,320,327,480,302.2C640,278,800,212,960,179.7C1120,147,1280,147,1440,122.5C1600,98,1760,49,1920,49C2080,49,2240,98,2400,138.8C2560,180,2720,212,2880,204.2C3040,196,3200,147,3360,179.7C3520,212,3680,327,3840,383.8C4000,441,4160,441,4320,367.5C4480,294,4640,147,4800,138.8C4960,131,5120,261,5280,277.7C5440,294,5600,196,5760,196C5920,196,6080,294,6240,326.7C6400,359,6560,327,6720,302.2C6880,278,7040,261,7200,228.7C7360,196,7520,147,7680,114.3C7840,82,8000,65,8160,98C8320,131,8480,212,8640,212.3C8800,212,8960,131,9120,130.7C9280,131,9440,212,9600,269.5C9760,327,9920,359,10080,334.8C10240,310,10400,229,10560,204.2C10720,180,10880,212,11040,245C11200,278,11360,310,11440,326.7L11520,343L11520,490L11440,490C11360,490,11200,490,11040,490C10880,490,10720,490,10560,490C10400,490,10240,490,10080,490C9920,490,9760,490,9600,490C9440,490,9280,490,9120,490C8960,490,8800,490,8640,490C8480,490,8320,490,8160,490C8000,490,7840,490,7680,490C7520,490,7360,490,7200,490C7040,490,6880,490,6720,490C6560,490,6400,490,6240,490C6080,490,5920,490,5760,490C5600,490,5440,490,5280,490C5120,490,4960,490,4800,490C4640,490,4480,490,4320,490C4160,490,4000,490,3840,490C3680,490,3520,490,3360,490C3200,490,3040,490,2880,490C2720,490,2560,490,2400,490C2240,490,2080,490,1920,490C1760,490,1600,490,1440,490C1280,490,1120,490,960,490C800,490,640,490,480,490C320,490,160,490,80,490L0,490Z"></path></svg>